<?xml version="1.0" standalone="no"?><!DOCTYPE svg PUBLIC "-//W3C//DTD SVG 1.1//EN" "http://www.w3.org/Graphics/SVG/1.1/DTD/svg11.dtd"><svg t="1645585834546" class="icon" viewBox="0 0 1024 1024" version="1.1" xmlns="http://www.w3.org/2000/svg" p-id="8214" xmlns:xlink="http://www.w3.org/1999/xlink" width="128" height="128"><defs><style type="text/css"></style></defs><path d="M640 0a128 128 0 0 1 128 128v42.667h128a42.667 42.667 0 0 1 4.992 85.034L896 256h-2.347l-35.882 646.912a128.17 128.17 0 0 1-120.491 120.875l-7.51 0.213H294.23a128.17 128.17 0 0 1-127.318-113.579l-0.64-7.509L130.304 256H128a42.667 42.667 0 0 1-4.95-85.035l4.95-0.298h128V128A128 128 0 0 1 376.49 0.213L384 0zM215.765 256l35.712 642.219c1.152 21.077 17.408 37.888 37.974 40.192l4.778 0.256h435.542c21.12 0 38.826-15.318 42.24-35.67l0.554-4.778L808.192 256H215.765zM640 85.333H384A42.667 42.667 0 0 0 341.333 128v42.667h341.334V128c0-21.845-16.47-39.893-37.675-42.368L640 85.333z" p-id="8215"></path></svg>